<svg width="32" height="32" viewBox="0 0 32 32" fill="none" xmlns="http://www.w3.org/2000/svg">
    <path fill-rule="evenodd" clip-rule="evenodd" d="M13.2905 5.55456C14.4714 3.48181 17.5283 3.48181 18.7092 5.55456L28.9387 23.5099C30.0864 25.5244 28.5926 28 26.2293 28H5.77035C3.40712 28 1.91331 25.5244 3.061 23.5099L13.2905 5.55456ZM17.3331 22.6667C17.3331 23.403 16.7361 24 15.9998 24C15.2634 24 14.6664 23.403 14.6664 22.6667C14.6664 21.9303 15.2634 21.3333 15.9998 21.3333C16.7361 21.3333 17.3331 21.9303 17.3331 22.6667ZM16.9998 12C16.9998 11.4477 16.552 11 15.9998 11C15.4475 11 14.9998 11.4477 14.9998 12V18.6667C14.9998 19.219 15.4475 19.6667 15.9998 19.6667C16.552 19.6667 16.9998 19.219 16.9998 18.6667V12Z" fill="#FB4141"/>
</svg>
