<svg width="174" height="32" viewBox="0 0 174 32" fill="none" xmlns="http://www.w3.org/2000/svg">
    <rect width="174" height="32" rx="12" fill="#FDB1B1"/>
    <path d="M35.6483 22V12.116H37.8463V22H35.6483ZM37.3283 22V20.096H42.7463V22H37.3283ZM37.3283 17.87V16.036H42.2563V17.87H37.3283ZM37.3283 14.006V12.116H42.6763V14.006H37.3283ZM44.0656 22V15.196H46.2076V22H44.0656ZM48.4196 22V18.024C48.4196 17.6787 48.3122 17.4127 48.0976 17.226C47.8922 17.03 47.6356 16.932 47.3276 16.932C47.1129 16.932 46.9216 16.9787 46.7536 17.072C46.5856 17.156 46.4502 17.2773 46.3476 17.436C46.2542 17.5947 46.2076 17.7907 46.2076 18.024L45.3816 17.66C45.3816 17.1187 45.4982 16.6567 45.7316 16.274C45.9649 15.882 46.2822 15.5833 46.6836 15.378C47.0849 15.1633 47.5376 15.056 48.0416 15.056C48.5176 15.056 48.9422 15.1633 49.3156 15.378C49.6982 15.5927 50.0016 15.8913 50.2256 16.274C50.4496 16.6567 50.5616 17.114 50.5616 17.646V22H48.4196ZM52.7736 22V18.024C52.7736 17.6787 52.6662 17.4127 52.4516 17.226C52.2462 17.03 51.9896 16.932 51.6816 16.932C51.4669 16.932 51.2756 16.9787 51.1076 17.072C50.9396 17.156 50.8042 17.2773 50.7016 17.436C50.6082 17.5947 50.5616 17.7907 50.5616 18.024L49.3296 17.856C49.3482 17.2773 49.4836 16.7827 49.7356 16.372C49.9969 15.952 50.3376 15.63 50.7576 15.406C51.1869 15.1727 51.6676 15.056 52.1996 15.056C52.7222 15.056 53.1842 15.168 53.5856 15.392C53.9962 15.6067 54.3182 15.9193 54.5516 16.33C54.7942 16.7313 54.9156 17.2167 54.9156 17.786V22H52.7736ZM59.1302 22.14C58.5049 22.14 57.9449 21.986 57.4502 21.678C56.9649 21.37 56.5776 20.95 56.2882 20.418C56.0082 19.886 55.8682 19.2793 55.8682 18.598C55.8682 17.9167 56.0082 17.31 56.2882 16.778C56.5776 16.246 56.9649 15.826 57.4502 15.518C57.9449 15.21 58.5049 15.056 59.1302 15.056C59.5876 15.056 59.9982 15.1447 60.3622 15.322C60.7356 15.4993 61.0389 15.7467 61.2722 16.064C61.5056 16.372 61.6362 16.7267 61.6642 17.128V20.068C61.6362 20.4693 61.5056 20.8287 61.2722 21.146C61.0482 21.454 60.7496 21.6967 60.3762 21.874C60.0029 22.0513 59.5876 22.14 59.1302 22.14ZM59.5642 20.208C60.0216 20.208 60.3902 20.0587 60.6702 19.76C60.9502 19.452 61.0902 19.0647 61.0902 18.598C61.0902 18.2807 61.0249 18.0007 60.8942 17.758C60.7729 17.5153 60.5956 17.3287 60.3622 17.198C60.1382 17.058 59.8769 16.988 59.5782 16.988C59.2796 16.988 59.0136 17.058 58.7802 17.198C58.5562 17.3287 58.3742 17.5153 58.2342 17.758C58.1036 18.0007 58.0382 18.2807 58.0382 18.598C58.0382 18.906 58.1036 19.1813 58.2342 19.424C58.3649 19.6667 58.5469 19.858 58.7802 19.998C59.0136 20.138 59.2749 20.208 59.5642 20.208ZM61.0062 22V20.166L61.3282 18.514L61.0062 16.862V15.196H63.1062V22H61.0062ZM64.6144 22V15.196H66.7564V22H64.6144ZM65.6924 14.258C65.3564 14.258 65.0764 14.146 64.8524 13.922C64.6377 13.6887 64.5304 13.4087 64.5304 13.082C64.5304 12.746 64.6377 12.466 64.8524 12.242C65.0764 12.018 65.3564 11.906 65.6924 11.906C66.0284 11.906 66.3037 12.018 66.5184 12.242C66.7331 12.466 66.8404 12.746 66.8404 13.082C66.8404 13.4087 66.7331 13.6887 66.5184 13.922C66.3037 14.146 66.0284 14.258 65.6924 14.258ZM68.2648 22V11.836H70.4068V22H68.2648ZM74.7772 22V12.116H76.3172L76.9752 14.09V22H74.7772ZM81.5952 22L75.7712 14.538L76.3172 12.116L82.1412 19.578L81.5952 22ZM81.5952 22L81.0072 20.026V12.116H83.2052V22H81.5952ZM88.1931 22.154C87.4931 22.154 86.8585 22 86.2891 21.692C85.7291 21.3747 85.2858 20.9453 84.9591 20.404C84.6325 19.8627 84.4691 19.256 84.4691 18.584C84.4691 17.912 84.6325 17.31 84.9591 16.778C85.2858 16.246 85.7291 15.826 86.2891 15.518C86.8491 15.2007 87.4838 15.042 88.1931 15.042C88.9025 15.042 89.5371 15.196 90.0971 15.504C90.6571 15.812 91.1005 16.2367 91.4271 16.778C91.7538 17.31 91.9171 17.912 91.9171 18.584C91.9171 19.256 91.7538 19.8627 91.4271 20.404C91.1005 20.9453 90.6571 21.3747 90.0971 21.692C89.5371 22 88.9025 22.154 88.1931 22.154ZM88.1931 20.208C88.5011 20.208 88.7718 20.1427 89.0051 20.012C89.2385 19.872 89.4158 19.6807 89.5371 19.438C89.6678 19.186 89.7331 18.9013 89.7331 18.584C89.7331 18.2667 89.6678 17.9913 89.5371 17.758C89.4065 17.5153 89.2245 17.3287 88.9911 17.198C88.7671 17.058 88.5011 16.988 88.1931 16.988C87.8945 16.988 87.6285 17.058 87.3951 17.198C87.1618 17.3287 86.9798 17.5153 86.8491 17.758C86.7185 18.0007 86.6531 18.2807 86.6531 18.598C86.6531 18.906 86.7185 19.186 86.8491 19.438C86.9798 19.6807 87.1618 19.872 87.3951 20.012C87.6285 20.1427 87.8945 20.208 88.1931 20.208ZM93.8128 22V12.382H95.9548V22H93.8128ZM92.2728 17.016V15.196H97.4948V17.016H92.2728ZM104.381 22L100.573 12.116H102.925L105.823 20.11H104.857L107.797 12.116H110.121L106.271 22H104.381ZM113.174 22.154C112.436 22.154 111.778 22.0047 111.2 21.706C110.63 21.398 110.182 20.9733 109.856 20.432C109.529 19.8907 109.366 19.2793 109.366 18.598C109.366 17.9167 109.524 17.31 109.842 16.778C110.168 16.2367 110.607 15.812 111.158 15.504C111.708 15.196 112.329 15.042 113.02 15.042C113.692 15.042 114.284 15.1867 114.798 15.476C115.311 15.7653 115.712 16.1667 116.002 16.68C116.3 17.1933 116.45 17.7813 116.45 18.444C116.45 18.5653 116.44 18.696 116.422 18.836C116.412 18.9667 116.389 19.1207 116.352 19.298L110.486 19.312V17.842L115.442 17.828L114.518 18.444C114.508 18.052 114.448 17.73 114.336 17.478C114.224 17.2167 114.056 17.0207 113.832 16.89C113.617 16.75 113.351 16.68 113.034 16.68C112.698 16.68 112.404 16.7593 112.152 16.918C111.909 17.0673 111.718 17.282 111.578 17.562C111.447 17.842 111.382 18.1827 111.382 18.584C111.382 18.9853 111.452 19.3307 111.592 19.62C111.741 19.9 111.946 20.1193 112.208 20.278C112.478 20.4273 112.796 20.502 113.16 20.502C113.496 20.502 113.799 20.446 114.07 20.334C114.34 20.2127 114.578 20.0353 114.784 19.802L115.96 20.978C115.624 21.37 115.218 21.664 114.742 21.86C114.266 22.056 113.743 22.154 113.174 22.154ZM117.484 22V15.196H119.626V22H117.484ZM119.626 18.262L118.73 17.562C118.907 16.7687 119.206 16.1527 119.626 15.714C120.046 15.2753 120.629 15.056 121.376 15.056C121.702 15.056 121.987 15.1073 122.23 15.21C122.482 15.3033 122.701 15.4527 122.888 15.658L121.614 17.268C121.52 17.1653 121.404 17.086 121.264 17.03C121.124 16.974 120.965 16.946 120.788 16.946C120.433 16.946 120.148 17.058 119.934 17.282C119.728 17.4967 119.626 17.8233 119.626 18.262ZM123.458 22V15.196H125.6V22H123.458ZM124.536 14.258C124.2 14.258 123.92 14.146 123.696 13.922C123.481 13.6887 123.374 13.4087 123.374 13.082C123.374 12.746 123.481 12.466 123.696 12.242C123.92 12.018 124.2 11.906 124.536 11.906C124.872 11.906 125.147 12.018 125.362 12.242C125.577 12.466 125.684 12.746 125.684 13.082C125.684 13.4087 125.577 13.6887 125.362 13.922C125.147 14.146 124.872 14.258 124.536 14.258ZM127.977 22V14.468C127.977 13.9453 128.093 13.474 128.327 13.054C128.56 12.634 128.887 12.3027 129.307 12.06C129.736 11.808 130.245 11.682 130.833 11.682C131.15 11.682 131.439 11.724 131.701 11.808C131.962 11.892 132.214 12.0273 132.457 12.214L131.393 13.782C131.299 13.7167 131.206 13.67 131.113 13.642C131.029 13.614 130.935 13.6 130.833 13.6C130.599 13.6 130.422 13.67 130.301 13.81C130.179 13.9407 130.119 14.1227 130.119 14.356V22H127.977ZM126.479 17.016V15.196H133.325V17.016H126.479ZM132.429 22V15.196H134.571V22H132.429ZM133.507 14.706C133.189 14.706 132.923 14.5987 132.709 14.384C132.503 14.16 132.401 13.8893 132.401 13.572C132.401 13.2547 132.503 12.9887 132.709 12.774C132.923 12.5593 133.189 12.452 133.507 12.452C133.833 12.452 134.099 12.5593 134.305 12.774C134.51 12.9887 134.613 13.2547 134.613 13.572C134.613 13.8893 134.51 14.16 134.305 14.384C134.099 14.5987 133.833 14.706 133.507 14.706ZM139.424 22.154C138.686 22.154 138.028 22.0047 137.45 21.706C136.88 21.398 136.432 20.9733 136.106 20.432C135.779 19.8907 135.616 19.2793 135.616 18.598C135.616 17.9167 135.774 17.31 136.092 16.778C136.418 16.2367 136.857 15.812 137.408 15.504C137.958 15.196 138.579 15.042 139.27 15.042C139.942 15.042 140.534 15.1867 141.048 15.476C141.561 15.7653 141.962 16.1667 142.252 16.68C142.55 17.1933 142.7 17.7813 142.7 18.444C142.7 18.5653 142.69 18.696 142.672 18.836C142.662 18.9667 142.639 19.1207 142.602 19.298L136.736 19.312V17.842L141.692 17.828L140.768 18.444C140.758 18.052 140.698 17.73 140.586 17.478C140.474 17.2167 140.306 17.0207 140.082 16.89C139.867 16.75 139.601 16.68 139.284 16.68C138.948 16.68 138.654 16.7593 138.402 16.918C138.159 17.0673 137.968 17.282 137.828 17.562C137.697 17.842 137.632 18.1827 137.632 18.584C137.632 18.9853 137.702 19.3307 137.842 19.62C137.991 19.9 138.196 20.1193 138.458 20.278C138.728 20.4273 139.046 20.502 139.41 20.502C139.746 20.502 140.049 20.446 140.32 20.334C140.59 20.2127 140.828 20.0353 141.034 19.802L142.21 20.978C141.874 21.37 141.468 21.664 140.992 21.86C140.516 22.056 139.993 22.154 139.424 22.154ZM146.632 22.14C145.988 22.14 145.414 21.986 144.91 21.678C144.415 21.37 144.023 20.95 143.734 20.418C143.454 19.886 143.314 19.2793 143.314 18.598C143.314 17.9167 143.454 17.31 143.734 16.778C144.023 16.246 144.415 15.826 144.91 15.518C145.414 15.21 145.988 15.056 146.632 15.056C147.098 15.056 147.518 15.1447 147.892 15.322C148.274 15.4993 148.587 15.7467 148.83 16.064C149.082 16.372 149.222 16.7267 149.25 17.128V19.998C149.222 20.3993 149.086 20.7633 148.844 21.09C148.601 21.4073 148.288 21.664 147.906 21.86C147.523 22.0467 147.098 22.14 146.632 22.14ZM147.01 20.208C147.318 20.208 147.584 20.1427 147.808 20.012C148.032 19.872 148.209 19.6807 148.34 19.438C148.47 19.1953 148.536 18.9153 148.536 18.598C148.536 18.2807 148.47 18.0053 148.34 17.772C148.218 17.5293 148.041 17.338 147.808 17.198C147.584 17.058 147.322 16.988 147.024 16.988C146.725 16.988 146.459 17.058 146.226 17.198C146.002 17.338 145.82 17.5293 145.68 17.772C145.549 18.0147 145.484 18.29 145.484 18.598C145.484 18.906 145.549 19.1813 145.68 19.424C145.81 19.6667 145.992 19.858 146.226 19.998C146.459 20.138 146.72 20.208 147.01 20.208ZM150.552 22H148.452V20.166L148.774 18.514L148.41 16.862V11.836H150.552V22Z" fill="#091E42"/>
    <circle cx="18" cy="16" r="8" fill="white"/>
    <circle cx="18" cy="16" r="6" fill="#FC6161"/>
    <path d="M20 14L16 18M20 18L16 14" stroke="white" stroke-linecap="round" stroke-linejoin="round"/>
</svg>
