<svg width="158" height="32" viewBox="0 0 158 32" fill="none" xmlns="http://www.w3.org/2000/svg">
<rect width="158" height="32" rx="12" fill="#A2DBBF"/>
<path d="M40.91 22V12.116H43.108V22H40.91ZM42.59 22V20.096H48.008V22H42.59ZM42.59 17.87V16.036H47.518V17.87H42.59ZM42.59 14.006V12.116H47.938V14.006H42.59ZM49.3273 22V15.196H51.4693V22H49.3273ZM53.6813 22V18.024C53.6813 17.6787 53.574 17.4127 53.3593 17.226C53.154 17.03 52.8973 16.932 52.5893 16.932C52.3746 16.932 52.1833 16.9787 52.0153 17.072C51.8473 17.156 51.712 17.2773 51.6093 17.436C51.516 17.5947 51.4693 17.7907 51.4693 18.024L50.6433 17.66C50.6433 17.1187 50.76 16.6567 50.9933 16.274C51.2266 15.882 51.544 15.5833 51.9453 15.378C52.3466 15.1633 52.7993 15.056 53.3033 15.056C53.7793 15.056 54.204 15.1633 54.5773 15.378C54.96 15.5927 55.2633 15.8913 55.4873 16.274C55.7113 16.6567 55.8233 17.114 55.8233 17.646V22H53.6813ZM58.0353 22V18.024C58.0353 17.6787 57.928 17.4127 57.7133 17.226C57.508 17.03 57.2513 16.932 56.9433 16.932C56.7286 16.932 56.5373 16.9787 56.3693 17.072C56.2013 17.156 56.066 17.2773 55.9633 17.436C55.87 17.5947 55.8233 17.7907 55.8233 18.024L54.5913 17.856C54.61 17.2773 54.7453 16.7827 54.9973 16.372C55.2586 15.952 55.5993 15.63 56.0193 15.406C56.4486 15.1727 56.9293 15.056 57.4613 15.056C57.984 15.056 58.446 15.168 58.8473 15.392C59.258 15.6067 59.58 15.9193 59.8133 16.33C60.056 16.7313 60.1773 17.2167 60.1773 17.786V22H58.0353ZM64.3919 22.14C63.7666 22.14 63.2066 21.986 62.7119 21.678C62.2266 21.37 61.8393 20.95 61.5499 20.418C61.2699 19.886 61.1299 19.2793 61.1299 18.598C61.1299 17.9167 61.2699 17.31 61.5499 16.778C61.8393 16.246 62.2266 15.826 62.7119 15.518C63.2066 15.21 63.7666 15.056 64.3919 15.056C64.8493 15.056 65.2599 15.1447 65.6239 15.322C65.9973 15.4993 66.3006 15.7467 66.5339 16.064C66.7673 16.372 66.8979 16.7267 66.9259 17.128V20.068C66.8979 20.4693 66.7673 20.8287 66.5339 21.146C66.3099 21.454 66.0113 21.6967 65.6379 21.874C65.2646 22.0513 64.8493 22.14 64.3919 22.14ZM64.8259 20.208C65.2833 20.208 65.6519 20.0587 65.9319 19.76C66.2119 19.452 66.3519 19.0647 66.3519 18.598C66.3519 18.2807 66.2866 18.0007 66.1559 17.758C66.0346 17.5153 65.8573 17.3287 65.6239 17.198C65.3999 17.058 65.1386 16.988 64.8399 16.988C64.5413 16.988 64.2753 17.058 64.0419 17.198C63.8179 17.3287 63.6359 17.5153 63.4959 17.758C63.3653 18.0007 63.2999 18.2807 63.2999 18.598C63.2999 18.906 63.3653 19.1813 63.4959 19.424C63.6266 19.6667 63.8086 19.858 64.0419 19.998C64.2753 20.138 64.5366 20.208 64.8259 20.208ZM66.2679 22V20.166L66.5899 18.514L66.2679 16.862V15.196H68.3679V22H66.2679ZM69.8761 22V15.196H72.0181V22H69.8761ZM70.9541 14.258C70.6181 14.258 70.3381 14.146 70.1141 13.922C69.8995 13.6887 69.7921 13.4087 69.7921 13.082C69.7921 12.746 69.8995 12.466 70.1141 12.242C70.3381 12.018 70.6181 11.906 70.9541 11.906C71.2901 11.906 71.5655 12.018 71.7801 12.242C71.9948 12.466 72.1021 12.746 72.1021 13.082C72.1021 13.4087 71.9948 13.6887 71.7801 13.922C71.5655 14.146 71.2901 14.258 70.9541 14.258ZM73.5265 22V11.836H75.6685V22H73.5265ZM83.1189 22L79.3109 12.116H81.6629L84.5609 20.11H83.5949L86.5349 12.116H88.8589L85.0089 22H83.1189ZM91.9119 22.154C91.1746 22.154 90.5166 22.0047 89.9379 21.706C89.3686 21.398 88.9206 20.9733 88.5939 20.432C88.2672 19.8907 88.1039 19.2793 88.1039 18.598C88.1039 17.9167 88.2626 17.31 88.5799 16.778C88.9066 16.2367 89.3452 15.812 89.8959 15.504C90.4466 15.196 91.0672 15.042 91.7579 15.042C92.4299 15.042 93.0226 15.1867 93.5359 15.476C94.0492 15.7653 94.4506 16.1667 94.7399 16.68C95.0386 17.1933 95.1879 17.7813 95.1879 18.444C95.1879 18.5653 95.1786 18.696 95.1599 18.836C95.1506 18.9667 95.1272 19.1207 95.0899 19.298L89.2239 19.312V17.842L94.1799 17.828L93.2559 18.444C93.2466 18.052 93.1859 17.73 93.0739 17.478C92.9619 17.2167 92.7939 17.0207 92.5699 16.89C92.3552 16.75 92.0892 16.68 91.7719 16.68C91.4359 16.68 91.1419 16.7593 90.8899 16.918C90.6472 17.0673 90.4559 17.282 90.3159 17.562C90.1852 17.842 90.1199 18.1827 90.1199 18.584C90.1199 18.9853 90.1899 19.3307 90.3299 19.62C90.4792 19.9 90.6846 20.1193 90.9459 20.278C91.2166 20.4273 91.5339 20.502 91.8979 20.502C92.2339 20.502 92.5372 20.446 92.8079 20.334C93.0786 20.2127 93.3166 20.0353 93.5219 19.802L94.6979 20.978C94.3619 21.37 93.9559 21.664 93.4799 21.86C93.0039 22.056 92.4812 22.154 91.9119 22.154ZM96.2218 22V15.196H98.3638V22H96.2218ZM98.3638 18.262L97.4678 17.562C97.6452 16.7687 97.9438 16.1527 98.3638 15.714C98.7838 15.2753 99.3672 15.056 100.114 15.056C100.44 15.056 100.725 15.1073 100.968 15.21C101.22 15.3033 101.439 15.4527 101.626 15.658L100.352 17.268C100.258 17.1653 100.142 17.086 100.002 17.03C99.8618 16.974 99.7032 16.946 99.5258 16.946C99.1712 16.946 98.8865 17.058 98.6718 17.282C98.4665 17.4967 98.3638 17.8233 98.3638 18.262ZM102.196 22V15.196H104.338V22H102.196ZM103.274 14.258C102.938 14.258 102.658 14.146 102.434 13.922C102.22 13.6887 102.112 13.4087 102.112 13.082C102.112 12.746 102.22 12.466 102.434 12.242C102.658 12.018 102.938 11.906 103.274 11.906C103.61 11.906 103.886 12.018 104.1 12.242C104.315 12.466 104.422 12.746 104.422 13.082C104.422 13.4087 104.315 13.6887 104.1 13.922C103.886 14.146 103.61 14.258 103.274 14.258ZM106.715 22V14.468C106.715 13.9453 106.831 13.474 107.065 13.054C107.298 12.634 107.625 12.3027 108.045 12.06C108.474 11.808 108.983 11.682 109.571 11.682C109.888 11.682 110.177 11.724 110.439 11.808C110.7 11.892 110.952 12.0273 111.195 12.214L110.131 13.782C110.037 13.7167 109.944 13.67 109.851 13.642C109.767 13.614 109.673 13.6 109.571 13.6C109.337 13.6 109.16 13.67 109.039 13.81C108.917 13.9407 108.857 14.1227 108.857 14.356V22H106.715ZM105.217 17.016V15.196H112.063V17.016H105.217ZM111.167 22V15.196H113.309V22H111.167ZM112.245 14.706C111.927 14.706 111.661 14.5987 111.447 14.384C111.241 14.16 111.139 13.8893 111.139 13.572C111.139 13.2547 111.241 12.9887 111.447 12.774C111.661 12.5593 111.927 12.452 112.245 12.452C112.571 12.452 112.837 12.5593 113.043 12.774C113.248 12.9887 113.351 13.2547 113.351 13.572C113.351 13.8893 113.248 14.16 113.043 14.384C112.837 14.5987 112.571 14.706 112.245 14.706ZM118.162 22.154C117.425 22.154 116.767 22.0047 116.188 21.706C115.619 21.398 115.171 20.9733 114.844 20.432C114.517 19.8907 114.354 19.2793 114.354 18.598C114.354 17.9167 114.513 17.31 114.83 16.778C115.157 16.2367 115.595 15.812 116.146 15.504C116.697 15.196 117.317 15.042 118.008 15.042C118.68 15.042 119.273 15.1867 119.786 15.476C120.299 15.7653 120.701 16.1667 120.99 16.68C121.289 17.1933 121.438 17.7813 121.438 18.444C121.438 18.5653 121.429 18.696 121.41 18.836C121.401 18.9667 121.377 19.1207 121.34 19.298L115.474 19.312V17.842L120.43 17.828L119.506 18.444C119.497 18.052 119.436 17.73 119.324 17.478C119.212 17.2167 119.044 17.0207 118.82 16.89C118.605 16.75 118.339 16.68 118.022 16.68C117.686 16.68 117.392 16.7593 117.14 16.918C116.897 17.0673 116.706 17.282 116.566 17.562C116.435 17.842 116.37 18.1827 116.37 18.584C116.37 18.9853 116.44 19.3307 116.58 19.62C116.729 19.9 116.935 20.1193 117.196 20.278C117.467 20.4273 117.784 20.502 118.148 20.502C118.484 20.502 118.787 20.446 119.058 20.334C119.329 20.2127 119.567 20.0353 119.772 19.802L120.948 20.978C120.612 21.37 120.206 21.664 119.73 21.86C119.254 22.056 118.731 22.154 118.162 22.154ZM125.37 22.14C124.726 22.14 124.152 21.986 123.648 21.678C123.153 21.37 122.761 20.95 122.472 20.418C122.192 19.886 122.052 19.2793 122.052 18.598C122.052 17.9167 122.192 17.31 122.472 16.778C122.761 16.246 123.153 15.826 123.648 15.518C124.152 15.21 124.726 15.056 125.37 15.056C125.836 15.056 126.256 15.1447 126.63 15.322C127.012 15.4993 127.325 15.7467 127.568 16.064C127.82 16.372 127.96 16.7267 127.988 17.128V19.998C127.96 20.3993 127.824 20.7633 127.582 21.09C127.339 21.4073 127.026 21.664 126.644 21.86C126.261 22.0467 125.836 22.14 125.37 22.14ZM125.748 20.208C126.056 20.208 126.322 20.1427 126.546 20.012C126.77 19.872 126.947 19.6807 127.078 19.438C127.208 19.1953 127.274 18.9153 127.274 18.598C127.274 18.2807 127.208 18.0053 127.078 17.772C126.956 17.5293 126.779 17.338 126.546 17.198C126.322 17.058 126.06 16.988 125.762 16.988C125.463 16.988 125.197 17.058 124.964 17.198C124.74 17.338 124.558 17.5293 124.418 17.772C124.287 18.0147 124.222 18.29 124.222 18.598C124.222 18.906 124.287 19.1813 124.418 19.424C124.548 19.6667 124.73 19.858 124.964 19.998C125.197 20.138 125.458 20.208 125.748 20.208ZM129.29 22H127.19V20.166L127.512 18.514L127.148 16.862V11.836H129.29V22Z" fill="#091E42"/>
<circle cx="21" cy="17" r="8" fill="white"/>
<circle cx="21" cy="17" r="6" fill="#42B77D"/>
<path d="M18.0833 17.4166L19.5526 18.5921C19.8973 18.8679 20.3973 18.827 20.6926 18.4988L23.9166 14.9166" stroke="white" stroke-linecap="round" stroke-linejoin="round"/>
</svg>

