<svg width="440" height="76" viewBox="0 0 110 19" fill="none" xmlns="http://www.w3.org/2000/svg">
    <rect width="110" height="19" rx="9.5" fill="url(#paint0_linear_820_15397)"/>
    <path d="M14.3765 4.65616L14.3764 4.65614C14.1433 4.42766 13.828 4.3 13.5 4.3C13.172 4.3 12.8567 4.42766 12.6236 4.65614L12.6235 4.65616L10.375 6.86043L9.16813 5.67732L9.16811 5.6773C8.99422 5.50688 8.77316 5.39126 8.53309 5.34446C8.29304 5.29767 8.04419 5.32166 7.81783 5.41357C7.59144 5.50549 7.39729 5.66141 7.26037 5.86223C7.12343 6.06309 7.05005 6.29968 7.05 6.54206V6.5421L7.05 11.9471L7.05 11.9473C7.05089 12.6784 7.34758 13.3785 7.87365 13.8942C8.39958 14.4098 9.11182 14.6991 9.85393 14.7H9.85417H17.1458H17.1461C17.8882 14.6991 18.6004 14.4098 19.1264 13.8942C19.6524 13.3785 19.9491 12.6784 19.95 11.9473V11.9471V6.54215C19.95 6.54214 19.95 6.54212 19.95 6.5421C19.9501 6.29972 19.8768 6.0631 19.7399 5.86218L19.5746 5.97477L19.7399 5.86218C19.6031 5.66129 19.409 5.50528 19.1826 5.41327C18.9562 5.32089 18.7071 5.29668 18.4669 5.34357C18.2266 5.39046 18.0054 5.50647 17.8317 5.67744C17.8317 5.67751 17.8316 5.67758 17.8315 5.67765L16.625 6.86043L14.3765 4.65616Z" fill="url(#paint1_linear_820_15397)" stroke="url(#paint2_linear_820_15397)" stroke-width="0.4"/>
    <path d="M27.3564 12.588C26.9458 12.588 26.5591 12.5133 26.1964 12.364C25.8391 12.2147 25.5271 12.0093 25.2604 11.748C24.9938 11.4813 24.7831 11.172 24.6284 10.82C24.4791 10.4627 24.4044 10.0787 24.4044 9.668C24.4044 9.25733 24.4818 8.876 24.6364 8.524C24.7911 8.172 25.0044 7.86533 25.2764 7.604C25.5538 7.33733 25.8764 7.132 26.2444 6.988C26.6124 6.83867 27.0071 6.764 27.4284 6.764C27.9138 6.764 28.3538 6.852 28.7484 7.028C29.1484 7.204 29.4791 7.44667 29.7404 7.756L28.8844 8.612C28.7031 8.37733 28.4898 8.20133 28.2444 8.084C27.9991 7.96667 27.7218 7.908 27.4124 7.908C27.0818 7.908 26.7858 7.98267 26.5244 8.132C26.2631 8.276 26.0578 8.48133 25.9084 8.748C25.7644 9.00933 25.6924 9.316 25.6924 9.668C25.6924 10.02 25.7644 10.3293 25.9084 10.596C26.0524 10.8627 26.2498 11.0707 26.5004 11.22C26.7511 11.3693 27.0391 11.444 27.3644 11.444C27.6951 11.444 27.9751 11.3827 28.2044 11.26C28.4391 11.132 28.6178 10.9507 28.7404 10.716C28.8684 10.476 28.9324 10.1853 28.9324 9.844L29.7644 10.404L27.2444 10.364V9.3H30.2124V9.484C30.2124 10.1613 30.0898 10.732 29.8444 11.196C29.6044 11.6547 29.2684 12.0013 28.8364 12.236C28.4098 12.4707 27.9164 12.588 27.3564 12.588ZM30.9737 12.5V6.852H32.2297V12.5H30.9737ZM31.9337 12.5V11.412H35.0297V12.5H31.9337ZM31.9337 10.14V9.092H34.7497V10.14H31.9337ZM31.9337 7.932V6.852H34.9897V7.932H31.9337ZM37.1077 12.5V6.932H38.3637V12.5H37.1077ZM35.3397 7.948V6.852H40.1317V7.948H35.3397ZM43.1915 10.444V9.468H44.4075C44.5622 9.468 44.7035 9.436 44.8315 9.372C44.9595 9.308 45.0608 9.21467 45.1355 9.092C45.2102 8.96933 45.2475 8.82 45.2475 8.644C45.2475 8.47333 45.2102 8.32667 45.1355 8.204C45.0608 8.08133 44.9595 7.988 44.8315 7.924C44.7035 7.86 44.5622 7.828 44.4075 7.828H43.1915V6.852H44.5915C44.9488 6.852 45.2715 6.924 45.5595 7.068C45.8475 7.212 46.0742 7.42 46.2395 7.692C46.4102 7.95867 46.4955 8.276 46.4955 8.644C46.4955 9.012 46.4102 9.332 46.2395 9.604C46.0742 9.87067 45.8475 10.0787 45.5595 10.228C45.2715 10.372 44.9488 10.444 44.5915 10.444H43.1915ZM42.2315 12.5V6.852H43.4875V12.5H42.2315ZM48.1603 10.172V9.244H49.3523C49.6029 9.244 49.7949 9.18 49.9283 9.052C50.0669 8.924 50.1363 8.75067 50.1363 8.532C50.1363 8.32933 50.0696 8.16133 49.9363 8.028C49.8029 7.89467 49.6109 7.828 49.3603 7.828H48.1603V6.852H49.5043C49.8776 6.852 50.2056 6.924 50.4883 7.068C50.7709 7.20667 50.9923 7.40133 51.1523 7.652C51.3123 7.90267 51.3923 8.19067 51.3923 8.516C51.3923 8.84667 51.3123 9.13733 51.1523 9.388C50.9923 9.63333 50.7683 9.82533 50.4803 9.964C50.1923 10.1027 49.8536 10.172 49.4643 10.172H48.1603ZM47.2003 12.5V6.852H48.4563V12.5H47.2003ZM50.2723 12.5L48.5123 10.068L49.6643 9.756L51.7603 12.5H50.2723ZM52.3096 12.5V6.852H53.5656V12.5H52.3096ZM53.2696 12.5V11.412H56.3656V12.5H53.2696ZM53.2696 10.14V9.092H56.0856V10.14H53.2696ZM53.2696 7.932V6.852H56.3256V7.932H53.2696ZM57.2315 12.5V6.852H58.1275L60.3515 10.316H59.8955L62.1115 6.852H63.0155V12.5H61.7595V8.972L61.9835 9.028L60.5355 11.284H59.7035L58.2635 9.028L58.4795 8.972V12.5H57.2315ZM64.0987 12.5V6.852H65.3547V12.5H64.0987ZM68.7144 12.588C68.2504 12.588 67.8398 12.4893 67.4824 12.292C67.1304 12.0947 66.8531 11.8227 66.6504 11.476C66.4531 11.124 66.3544 10.724 66.3544 10.276V6.852H67.6184V10.348C67.6184 10.572 67.6664 10.7667 67.7624 10.932C67.8584 11.0973 67.9891 11.2253 68.1544 11.316C68.3251 11.4013 68.5118 11.444 68.7144 11.444C68.9278 11.444 69.1144 11.4013 69.2744 11.316C69.4344 11.2253 69.5598 11.1 69.6504 10.94C69.7464 10.7747 69.7944 10.58 69.7944 10.356V6.852H71.0584V10.284C71.0584 10.732 70.9598 11.1293 70.7624 11.476C70.5651 11.8227 70.2904 12.0947 69.9384 12.292C69.5864 12.4893 69.1784 12.588 68.7144 12.588ZM72.0596 12.5V6.852H72.9556L75.1796 10.316H74.7236L76.9396 6.852H77.8436V12.5H76.5876V8.972L76.8116 9.028L75.3636 11.284H74.5316L73.0916 9.028L73.3076 8.972V12.5H72.0596ZM80.4503 12.5V6.852H81.3303L81.7063 7.98V12.5H80.4503ZM84.3463 12.5L81.0183 8.236L81.3303 6.852L84.6583 11.116L84.3463 12.5ZM84.3463 12.5L84.0103 11.372V6.852H85.2663V12.5H84.3463ZM89.0525 12.596C88.6258 12.596 88.2312 12.5213 87.8685 12.372C87.5112 12.2227 87.1965 12.0147 86.9245 11.748C86.6525 11.4813 86.4418 11.172 86.2925 10.82C86.1432 10.4627 86.0685 10.0787 86.0685 9.668C86.0685 9.252 86.1432 8.868 86.2925 8.516C86.4418 8.164 86.6498 7.85733 86.9165 7.596C87.1832 7.32933 87.4952 7.124 87.8525 6.98C88.2152 6.83067 88.6098 6.756 89.0365 6.756C89.4578 6.756 89.8472 6.83067 90.2045 6.98C90.5672 7.124 90.8818 7.32933 91.1485 7.596C91.4205 7.85733 91.6312 8.16667 91.7805 8.524C91.9298 8.876 92.0045 9.26 92.0045 9.676C92.0045 10.0867 91.9298 10.4707 91.7805 10.828C91.6312 11.18 91.4232 11.4893 91.1565 11.756C90.8898 12.0173 90.5752 12.2227 90.2125 12.372C89.8552 12.5213 89.4685 12.596 89.0525 12.596ZM89.0365 11.452C89.3725 11.452 89.6658 11.3773 89.9165 11.228C90.1725 11.0787 90.3698 10.8707 90.5085 10.604C90.6472 10.332 90.7165 10.02 90.7165 9.668C90.7165 9.40133 90.6765 9.16133 90.5965 8.948C90.5165 8.72933 90.4018 8.54267 90.2525 8.388C90.1032 8.228 89.9245 8.108 89.7165 8.028C89.5138 7.94267 89.2872 7.9 89.0365 7.9C88.7005 7.9 88.4045 7.97467 88.1485 8.124C87.8978 8.268 87.7032 8.47333 87.5645 8.74C87.4258 9.00133 87.3565 9.31067 87.3565 9.668C87.3565 9.93467 87.3965 10.1773 87.4765 10.396C87.5565 10.6147 87.6685 10.804 87.8125 10.964C87.9618 11.1187 88.1405 11.2387 88.3485 11.324C88.5565 11.4093 88.7858 11.452 89.0365 11.452ZM93.9989 12.5L92.1829 6.852H93.4309L94.7589 11.196H94.2709L95.5669 6.852H96.5509L97.8469 11.196H97.3669L98.6869 6.852H99.9269L98.1109 12.5H97.1269L95.8229 8.156H96.2869L94.9829 12.5H93.9989ZM100.735 10.436L100.535 6.692H101.855L101.655 10.436H100.735ZM101.191 12.588C100.983 12.588 100.809 12.516 100.671 12.372C100.532 12.228 100.463 12.0547 100.463 11.852C100.463 11.6387 100.532 11.4627 100.671 11.324C100.809 11.18 100.983 11.108 101.191 11.108C101.404 11.108 101.577 11.18 101.711 11.324C101.849 11.4627 101.919 11.6387 101.919 11.852C101.919 12.0547 101.849 12.228 101.711 12.372C101.577 12.516 101.404 12.588 101.191 12.588Z" fill="#F5F6F7"/>
    <defs>
        <linearGradient id="paint0_linear_820_15397" x1="-2.41411e-07" y1="9.88" x2="83.0294" y2="57.3531" gradientUnits="userSpaceOnUse">
            <stop stop-color="#EF5656"/>
            <stop offset="0.0001" stop-color="#C83D3D"/>
            <stop offset="1" stop-color="#2C4995"/>
        </linearGradient>
        <linearGradient id="paint1_linear_820_15397" x1="13.5" y1="4.5" x2="13.5" y2="14.5" gradientUnits="userSpaceOnUse">
            <stop stop-color="#FFF4B9"/>
            <stop offset="1" stop-color="#FFE147"/>
        </linearGradient>
        <linearGradient id="paint2_linear_820_15397" x1="13.5" y1="4.5" x2="13.5" y2="14.5" gradientUnits="userSpaceOnUse">
            <stop stop-color="#F6E8E8"/>
            <stop offset="1" stop-color="#B9625C" stop-opacity="0.92"/>
        </linearGradient>
    </defs>
</svg>
