<svg width="512" height="512" viewBox="0 0 45 42" fill="none" xmlns="http://www.w3.org/2000/svg">
    <g filter="url(#filter0_d_1414_2604)">
        <path d="M29.2288 14.3183C29.0004 14.225 28.7488 14.2005 28.5062 14.2478C28.2636 14.2952 28.0408 14.4123 27.8663 14.5842L26.25 16.1686L23.3837 13.3588C23.1493 13.1291 22.8315 13 22.5 13C22.1685 13 21.8507 13.1291 21.6163 13.3588L18.75 16.1686L17.1337 14.5842C16.9589 14.4128 16.7362 14.2962 16.4938 14.2489C16.2513 14.2017 16.0001 14.2259 15.7717 14.3187C15.5433 14.4114 15.3481 14.5684 15.2107 14.7699C15.0734 14.9713 15.0001 15.2082 15 15.4505V21.9365C15.001 22.7487 15.3306 23.5274 15.9164 24.1017C16.5022 24.676 17.2965 24.999 18.125 25H26.875C27.7035 24.999 28.4978 24.676 29.0836 24.1017C29.6694 23.5274 29.999 22.7487 30 21.9365V15.4505C30.0001 15.2082 29.9268 14.9713 29.7895 14.7697C29.6523 14.5682 29.4571 14.4111 29.2288 14.3183Z" fill="url(#paint0_linear_1414_2604)" shape-rendering="crispEdges"/>
        <path d="M23.5238 13.216L23.5237 13.2159C23.2515 12.9492 22.8832 12.8 22.5 12.8C22.1168 12.8 21.7485 12.9492 21.4763 13.2159L21.4762 13.216L18.75 15.8885L17.2738 14.4413L17.2737 14.4413C17.0707 14.2424 16.8125 14.1073 16.5321 14.0526C16.2516 13.9979 15.9609 14.026 15.6964 14.1333C15.432 14.2407 15.2053 14.4228 15.0455 14.6572C14.8857 14.8916 14.8001 15.1677 14.8 15.4505V15.4505L14.8 21.9365L14.8 21.9368C14.8011 22.8032 15.1527 23.633 15.7764 24.2445C16.4 24.8558 17.2446 25.199 18.1248 25.2H18.125H26.875H26.8752C27.7554 25.199 28.6 24.8558 29.2236 24.2445C29.8473 23.633 30.1989 22.8032 30.2 21.9368V21.9365V15.4506C30.2 15.4506 30.2 15.4505 30.2 15.4505C30.2001 15.1678 30.1146 14.8916 29.9548 14.6571C29.7951 14.4227 29.5685 14.2405 29.3041 14.133C29.0397 14.0251 28.7486 13.9968 28.4679 14.0515C28.1872 14.1063 27.9289 14.2419 27.7261 14.4415C27.726 14.4416 27.726 14.4416 27.7259 14.4417L26.25 15.8885L23.5238 13.216Z" stroke="url(#paint1_linear_1414_2604)" stroke-width="0.4" shape-rendering="crispEdges"/>
    </g>
    <defs>
        <filter id="filter0_d_1414_2604" x="0.600098" y="0.600098" width="43.7998" height="40.7998" filterUnits="userSpaceOnUse" color-interpolation-filters="sRGB">
            <feFlood flood-opacity="0" result="BackgroundImageFix"/>
            <feColorMatrix in="SourceAlpha" type="matrix" values="0 0 0 0 0 0 0 0 0 0 0 0 0 0 0 0 0 0 127 0" result="hardAlpha"/>
            <feOffset dy="2"/>
            <feGaussianBlur stdDeviation="7"/>
            <feComposite in2="hardAlpha" operator="out"/>
            <feColorMatrix type="matrix" values="0 0 0 0 0 0 0 0 0 0 0 0 0 0 0 0 0 0 0.25 0"/>
            <feBlend mode="normal" in2="BackgroundImageFix" result="effect1_dropShadow_1414_2604"/>
            <feBlend mode="normal" in="SourceGraphic" in2="effect1_dropShadow_1414_2604" result="shape"/>
        </filter>
        <linearGradient id="paint0_linear_1414_2604" x1="22.5" y1="13" x2="22.5" y2="25" gradientUnits="userSpaceOnUse">
            <stop stop-color="#FFF4B9"/>
            <stop offset="1" stop-color="#FFE147"/>
        </linearGradient>
        <linearGradient id="paint1_linear_1414_2604" x1="22.5" y1="13" x2="22.5" y2="25" gradientUnits="userSpaceOnUse">
            <stop stop-color="#F6E8E8"/>
            <stop offset="1" stop-color="#B9625C" stop-opacity="0.92"/>
        </linearGradient>
    </defs>
</svg>
