<svg width="33" height="20" viewBox="0 0 33 20" fill="none" xmlns="http://www.w3.org/2000/svg">
    <rect y="3" width="30" height="14" rx="7" fill="white"/>
    <g filter="url(#filter0_d_208_75)">
        <circle cx="23" cy="10" r="5" fill="#424242"/>
        <circle cx="23" cy="10" r="4.9" stroke="#F6E8E8" stroke-width="0.2"/>
    </g>
    <g clip-path="url(#clip0_208_75)">
        <path d="M24 9H22C21.4477 9 21 9.44772 21 10V11.5C21 12.0523 21.4477 12.5 22 12.5H24C24.5523 12.5 25 12.0523 25 11.5V10C25 9.44772 24.5523 9 24 9ZM24 9L24 8.5C24 7.94772 23.5523 7.5 23 7.5C22.6299 7.5 22.3067 7.7011 22.1338 8M23.5 10.75C23.5 11.0261 23.2761 11.25 23 11.25C22.7239 11.25 22.5 11.0261 22.5 10.75C22.5 10.4739 22.7239 10.25 23 10.25C23.2761 10.25 23.5 10.4739 23.5 10.75Z" stroke="#F6E8E8" stroke-width="0.5" stroke-linecap="round" stroke-linejoin="round"/>
    </g>
    <path d="M22 8V9" stroke="#F6E8E8" stroke-width="0.5"/>
    <defs>
        <filter id="filter0_d_208_75" x="13" y="0" width="20" height="20" filterUnits="userSpaceOnUse" color-interpolation-filters="sRGB">
            <feFlood flood-opacity="0" result="BackgroundImageFix"/>
            <feColorMatrix in="SourceAlpha" type="matrix" values="0 0 0 0 0 0 0 0 0 0 0 0 0 0 0 0 0 0 127 0" result="hardAlpha"/>
            <feOffset/>
            <feGaussianBlur stdDeviation="2.5"/>
            <feComposite in2="hardAlpha" operator="out"/>
            <feColorMatrix type="matrix" values="0 0 0 0 0 0 0 0 0 0 0 0 0 0 0 0 0 0 0.25 0"/>
            <feBlend mode="normal" in2="BackgroundImageFix" result="effect1_dropShadow_208_75"/>
            <feBlend mode="normal" in="SourceGraphic" in2="effect1_dropShadow_208_75" result="shape"/>
        </filter>
        <clipPath id="clip0_208_75">
            <rect width="6" height="6" fill="white" transform="translate(20 7)"/>
        </clipPath>
    </defs>
</svg>
