<svg width="11" height="10" viewBox="0 0 11 10" fill="none" xmlns="http://www.w3.org/2000/svg">
    <path d="M5.95405 0C3.61043 0 1.63877 1.62084 1.09993 3.80022L0.764471 3.20855C0.659776 3.02389 0.425414 2.95906 0.240758 3.06375C0.0561021 3.16845 -0.00873154 3.40281 0.0959629 3.58747L1.00027 5.18285C1.00027 5.18285 1.00027 5.18309 1.00051 5.18309L1.00412 5.18934C1.00868 5.1975 1.01348 5.20519 1.01852 5.21287C1.01876 5.21311 1.019 5.21359 1.01924 5.21383C1.0202 5.21551 1.0214 5.21695 1.0226 5.21839C1.02813 5.22632 1.03365 5.23376 1.03965 5.2412C1.04061 5.24241 1.04133 5.24361 1.0423 5.24481C1.0423 5.24481 1.0423 5.24505 1.04254 5.24505C1.04302 5.24553 1.0435 5.24601 1.04398 5.24673C1.05262 5.25729 1.06199 5.26714 1.07159 5.2765C1.07255 5.27746 1.07327 5.27818 1.07423 5.2789C1.08023 5.28443 1.08624 5.28995 1.09248 5.29499C1.09368 5.29595 1.09488 5.29691 1.09608 5.29787C1.10449 5.3046 1.11313 5.31108 1.12202 5.31732C1.12274 5.31781 1.12346 5.31829 1.12418 5.31877C1.12826 5.32141 1.13258 5.32405 1.13666 5.32669C1.13883 5.32813 1.14099 5.32933 1.14339 5.33077C1.14627 5.33245 1.14939 5.33413 1.15251 5.33581C1.15515 5.33726 1.1578 5.3387 1.16044 5.3399C1.16524 5.3423 1.1698 5.3447 1.1746 5.3471C1.17725 5.3483 1.17989 5.3495 1.18253 5.3507C1.18253 5.3507 1.18277 5.3507 1.18277 5.35094C1.18565 5.35214 1.18853 5.35358 1.19141 5.35478C1.19934 5.35815 1.20726 5.36103 1.21543 5.36367C1.21639 5.36415 1.21759 5.36439 1.21855 5.36463C1.21903 5.36487 1.21927 5.36487 1.21975 5.36511C1.22335 5.36631 1.22719 5.36727 1.23103 5.36847C1.238 5.37063 1.2452 5.37231 1.2524 5.37399C1.25433 5.37447 1.25601 5.37496 1.25793 5.37544C1.25961 5.37592 1.26129 5.37616 1.26321 5.37664C1.27378 5.3788 1.28458 5.38024 1.29515 5.38144C1.29611 5.38144 1.29683 5.38168 1.29779 5.38192C1.29971 5.38216 1.30139 5.38216 1.30331 5.3824C1.31508 5.3836 1.32684 5.38432 1.33885 5.38432C1.34893 5.38432 1.35902 5.38384 1.3691 5.38288C1.37079 5.38264 1.37247 5.38264 1.37415 5.3824C1.37439 5.3824 1.37487 5.3824 1.37511 5.3824C1.37655 5.38216 1.37799 5.38216 1.37967 5.38192C1.38639 5.3812 1.39288 5.38024 1.3996 5.37928C1.40152 5.37904 1.40344 5.3788 1.40536 5.37832C1.40849 5.37784 1.41137 5.37736 1.41449 5.37664C1.41593 5.3764 1.41737 5.37592 1.41905 5.37568C1.42866 5.37351 1.4385 5.37111 1.44811 5.36823C1.45051 5.36751 1.45291 5.36679 1.45531 5.36607C1.45795 5.36535 1.46035 5.36439 1.46299 5.36343C1.46636 5.36223 1.46972 5.36103 1.47308 5.35983C1.47716 5.35839 1.481 5.35695 1.48509 5.35526C1.48749 5.3543 1.48989 5.3531 1.49229 5.35214C1.49541 5.3507 1.49853 5.34926 1.50165 5.34782C1.50622 5.34566 1.51054 5.34326 1.5151 5.3411C1.51822 5.33942 1.5211 5.33798 1.52423 5.3363C1.53095 5.33269 1.53743 5.32837 1.54392 5.32429C1.54752 5.32213 1.55112 5.31997 1.55472 5.31757C1.55616 5.3166 1.55736 5.31564 1.5588 5.31468C1.56289 5.3118 1.56697 5.30868 1.57081 5.30556C1.57225 5.3046 1.57369 5.3034 1.57513 5.30244C1.57777 5.30028 1.58065 5.29836 1.5833 5.29619L1.58354 5.29595L3.00123 4.12102C3.16452 3.98559 3.18733 3.74355 3.0519 3.58002C2.91647 3.41674 2.67418 3.39392 2.5109 3.52936L1.81838 4.10325C2.23091 2.19954 3.92836 0.76864 5.95381 0.76864C8.2871 0.76864 10.1853 2.66683 10.1853 5.00012C10.1853 7.33341 8.2871 9.2316 5.95381 9.2316C5.74154 9.2316 5.56961 9.40353 5.56961 9.6158C5.56961 9.82807 5.74154 10 5.95381 10C8.71068 10 10.9537 7.75699 10.9537 5.00012C10.9537 2.24325 8.71092 0 5.95405 0Z" fill="#A81B1B"/>
</svg>
