<svg width="32" height="32" viewBox="0 0 32 32" fill="none" xmlns="http://www.w3.org/2000/svg">
<path fill-rule="evenodd" clip-rule="evenodd" d="M29.2376 25.5164C29.2376 29.0048 26.2742 31.8327 22.6187 31.8327H9.38095C5.72544 31.8327 2.76206 29.0048 2.76206 25.5164V17.7933C2.76206 16.672 2.29526 15.5965 1.46434 14.8036C-0.460805 12.9665 -0.210536 9.92259 1.9913 8.39446L12.1068 1.37409C14.4277 -0.236676 17.572 -0.236676 19.8929 1.37409L30.0084 8.39446C32.2102 9.92259 32.4605 12.9665 30.5353 14.8036C29.7044 15.5965 29.2376 16.672 29.2376 17.7933V25.5164ZM15.9998 25.4993C17.7487 25.4993 19.1665 24.0816 19.1665 22.3327C19.1665 20.5838 17.7487 19.166 15.9998 19.166C14.2509 19.166 12.8332 20.5838 12.8332 22.3327C12.8332 24.0816 14.2509 25.4993 15.9998 25.4993Z" fill="#B74242"/>
</svg>
