<svg width="18" height="15" viewBox="0 0 18 15" fill="none" xmlns="http://www.w3.org/2000/svg">
<path d="M14.6 11.477H13M14.6 3.41778H13M5 3.41778H3.4M5 11.477H3.4M4.2 13.8948H13.8C15.5673 13.8948 17 12.4515 17 10.6711V4.2237C17 2.4433 15.5673 1 13.8 1H4.2C2.43269 1 1 2.4433 1 4.2237V10.6711C1 12.4515 2.43269 13.8948 4.2 13.8948ZM10.6 7.44741C10.6 8.33761 9.88366 9.05926 9 9.05926C8.11634 9.05926 7.4 8.33761 7.4 7.44741C7.4 6.5572 8.11634 5.83555 9 5.83555C9.88366 5.83555 10.6 6.5572 10.6 7.44741Z" stroke="#A81B1B" stroke-width="1.5" stroke-linecap="round"/>
</svg>
