<svg width="18" height="18" viewBox="0 0 18 18" fill="none" xmlns="http://www.w3.org/2000/svg">
<path d="M17 9.05926C17 13.5103 13.4183 17.1185 9 17.1185M17 9.05926C17 4.60825 13.4183 1 9 1M17 9.05926H15.4M9 17.1185C4.58172 17.1185 1 13.5103 1 9.05926M9 17.1185V15.5067M1 9.05926C1 4.60825 4.58172 1 9 1M1 9.05926H2.6M9 1V2.61185M11.2889 5.8725L6.27267 7.55697C5.64244 7.7686 5.64244 8.66665 6.27267 8.87828L8.12501 9.5003C8.33142 9.56961 8.4934 9.73279 8.5622 9.94073L9.17965 11.8068C9.38972 12.4417 10.2812 12.4417 10.4912 11.8068L12.1633 6.75337C12.3435 6.20896 11.8293 5.69103 11.2889 5.8725Z" stroke="#A81B1B" stroke-width="1.5" stroke-linecap="round" stroke-linejoin="round"/>
</svg>
