<svg width="14" height="14" viewBox="0 0 14 14" fill="none" xmlns="http://www.w3.org/2000/svg">
<path d="M14 12.4444V11.1643C14 10.5282 13.6127 9.95621 13.0222 9.71998L11.4401 9.08713C10.6889 8.78667 9.83281 9.11215 9.47101 9.83576L9.33333 10.1111C9.33333 10.1111 7.38889 9.72222 5.83333 8.16667C4.27778 6.61111 3.88889 4.66667 3.88889 4.66667L4.16424 4.52899C4.88785 4.16719 5.21333 3.31111 4.91287 2.55994L4.28002 0.977837C4.04379 0.387258 3.4718 0 2.83573 0H1.55556C0.696446 0 0 0.696446 0 1.55556C0 8.42843 5.57157 14 12.4444 14C13.3036 14 14 13.3036 14 12.4444Z" fill="#A81B1B"/>
</svg>
