<svg width="9" height="8" viewBox="0 0 9 8" fill="none" xmlns="http://www.w3.org/2000/svg">
<path d="M7.94515 1.80442C7.65089 0.9018 6.82915 0.934623 6.39179 1.05267C5.98323 1.16294 5.64693 1.58042 5.44941 1.9311C5.23318 2.31518 5.18423 2.76001 5.13816 3.19073C5.12031 3.35714 5.09872 3.52327 5.07712 3.68911C5.0659 3.77577 5.0538 3.87654 4.99881 3.94766C4.94785 4.01388 4.88882 4.04613 4.82922 4.07118L4.88594 4.0421C4.86032 4.05476 4.80331 4.08125 4.79381 4.08557C4.77855 4.09162 4.76329 4.09766 4.74831 4.104C4.68065 4.12588 4.60406 4.13337 4.5174 4.12386C4.42872 4.11408 4.34838 4.05333 4.27842 4.0015C4.08436 3.85725 3.89836 3.70322 3.71322 3.54717C2.9148 2.87345 1.87309 2.89331 1.4887 3.12796C1.10432 3.36233 0.517532 3.93326 0.962089 4.76966C1.40636 5.60634 3.61072 6.40301 3.61072 6.40301L4.34867 6.68891C5.08663 6.97481 6.24956 7.55668 6.24956 7.55668C6.24956 7.55668 6.66043 6.33391 6.96851 5.59857L7.27659 4.86323C7.27659 4.86323 8.23855 2.70646 7.94429 1.80413L7.94515 1.80442Z" fill="#992828" stroke="#661010" stroke-width="0.3" stroke-miterlimit="10"/>
</svg>
