<svg width="18" height="13" viewBox="0 0 18 13" fill="none" xmlns="http://www.w3.org/2000/svg">
<path d="M10.2412 11.0873L10.1211 11.8765C10.1211 11.8765 8.12893 10.8737 7.51248 10.6531C6.89603 10.4326 5.17884 9.92529 4.43052 9.68287C3.68192 9.44015 2.62552 8.96653 2.06435 8.41575C1.50289 7.86468 1.17293 7.45728 1.01947 6.58749C0.865714 5.71769 1.63707 4.47419 2.8262 4.32073C4.01505 4.16727 5.1489 4.49808 6.1503 5.22507C6.41232 5.41538 6.77424 5.77009 7.02589 5.97423C7.20498 6.11962 7.22484 6.20485 7.47217 6.21233C7.66998 6.21809 7.85655 6.07471 7.88938 5.86482C7.94466 5.51241 7.95646 3.68501 8.74999 2.50772C9.54293 1.32986 10.3249 0.923034 11.1835 1.01171C12.0424 1.1001 12.8567 1.70616 13.0651 2.65283C13.2739 3.5995 13.2074 4.57927 12.9096 5.39379C12.6894 5.99582 12.2644 6.84661 11.9298 7.39307C11.9298 7.39307 10.5639 6.91168 9.78191 7.65997C8.99991 8.40826 8.97745 9.29965 9.24119 9.93825C9.50521 10.5771 9.86685 10.7568 10.2409 11.0873H10.2412Z" fill="#992828" stroke="#661010" stroke-width="0.3" stroke-miterlimit="10"/>
<path d="M16.9452 6.80442C16.6509 5.9018 15.8292 5.93462 15.3918 6.05267C14.9832 6.16294 14.6469 6.58042 14.4494 6.9311C14.2332 7.31518 14.1842 7.76001 14.1382 8.19073C14.1203 8.35714 14.0987 8.52327 14.0771 8.68911C14.0659 8.77577 14.0538 8.87654 13.9988 8.94766C13.9478 9.01388 13.8888 9.04613 13.8292 9.07118L13.8859 9.0421C13.8603 9.05476 13.8033 9.08125 13.7938 9.08557C13.7785 9.09162 13.7633 9.09766 13.7483 9.104C13.6807 9.12588 13.6041 9.13337 13.5174 9.12386C13.4287 9.11408 13.3484 9.05333 13.2784 9.0015C13.0844 8.85725 12.8984 8.70322 12.7132 8.54717C11.9148 7.87345 10.8731 7.89331 10.4887 8.12796C10.1043 8.36233 9.51753 8.93326 9.96209 9.76966C10.4064 10.6063 12.6107 11.403 12.6107 11.403L13.3487 11.6889C14.0866 11.9748 15.2496 12.5567 15.2496 12.5567C15.2496 12.5567 15.6604 11.3339 15.9685 10.5986L16.2766 9.86323C16.2766 9.86323 17.2386 7.70646 16.9443 6.80413L16.9452 6.80442Z" fill="#992828" stroke="#661010" stroke-width="0.3" stroke-miterlimit="10"/>
</svg>
