<svg width="17" height="19" viewBox="0 0 17 19" fill="none" xmlns="http://www.w3.org/2000/svg">
<path d="M1.42702 11.2756L0.853694 10.7921H0.853694L1.42702 11.2756ZM2.25134 9.34747L1.50603 9.26366L2.25134 9.34747ZM14.7487 9.34747L15.494 9.26366V9.26366L14.7487 9.34747ZM15.573 11.2756L16.1463 10.7921L15.573 11.2756ZM14.4253 6.47214L13.68 6.55595V6.55595L14.4253 6.47214ZM2.57466 6.47214L3.31996 6.55595L2.57466 6.47214ZM12.0154 16.3726C12.1599 15.9844 11.9622 15.5526 11.574 15.4082C11.1858 15.2638 10.754 15.4614 10.6096 15.8496L12.0154 16.3726ZM6.39043 15.8496C6.24601 15.4614 5.81421 15.2638 5.42599 15.4082C5.03778 15.5526 4.84014 15.9844 4.98457 16.3726L6.39043 15.8496ZM14.2842 13.4722H2.71575V14.9722H14.2842V13.4722ZM13.68 6.55595L14.0034 9.43128L15.494 9.26366L15.1706 6.38834L13.68 6.55595ZM2.99664 9.43128L3.31996 6.55595L1.82936 6.38834L1.50603 9.26366L2.99664 9.43128ZM2.00035 11.7591C2.554 11.1026 2.90001 10.2906 2.99664 9.43128L1.50603 9.26366C1.44199 9.83321 1.21312 10.3659 0.853694 10.7921L2.00035 11.7591ZM14.0034 9.43128C14.1 10.2906 14.446 11.1026 14.9996 11.7591L16.1463 10.7921C15.7869 10.3659 15.558 9.83321 15.494 9.26366L14.0034 9.43128ZM2.71575 13.4722C1.93625 13.4722 1.40777 12.4618 2.00035 11.7591L0.853694 10.7921C-0.491356 12.387 0.552774 14.9722 2.71575 14.9722V13.4722ZM14.2842 14.9722C16.4472 14.9722 17.4914 12.387 16.1463 10.7921L14.9996 11.7591C15.5922 12.4618 15.0637 13.4722 14.2842 13.4722V14.9722ZM15.1706 6.38834C14.7796 2.91112 11.9306 0.25 8.5 0.25V1.75C11.1239 1.75 13.3694 3.79382 13.68 6.55595L15.1706 6.38834ZM3.31996 6.55595C3.63056 3.79382 5.87614 1.75 8.5 1.75V0.25C5.06939 0.25 2.22036 2.91112 1.82936 6.38834L3.31996 6.55595ZM10.6096 15.8496C10.3127 16.6476 9.49462 17.25 8.5 17.25V18.75C10.1023 18.75 11.4935 17.7756 12.0154 16.3726L10.6096 15.8496ZM8.5 17.25C7.50538 17.25 6.68729 16.6476 6.39043 15.8496L4.98457 16.3726C5.50649 17.7756 6.89769 18.75 8.5 18.75V17.25Z" fill="#A81B1B"/>
</svg>
