<svg width="18" height="18" viewBox="0 0 18 18" fill="none" xmlns="http://www.w3.org/2000/svg">
<path d="M14.2471 15.143C13.4523 13.0017 11.4029 11.477 9 11.477C6.5971 11.477 4.54768 13.0017 3.75293 15.143M14.2471 15.143C15.9337 13.6655 17 11.4878 17 9.05926C17 4.60825 13.4183 1 9 1C4.58172 1 1 4.60825 1 9.05926C1 11.4878 2.06628 13.6655 3.75293 15.143M14.2471 15.143C12.8425 16.3735 11.0076 17.1185 9 17.1185C6.99242 17.1185 5.15755 16.3735 3.75293 15.143M11.4 6.64148C11.4 7.97678 10.3255 9.05926 9 9.05926C7.67452 9.05926 6.6 7.97678 6.6 6.64148C6.6 5.30618 7.67452 4.2237 9 4.2237C10.3255 4.2237 11.4 5.30618 11.4 6.64148Z" stroke="#A81B1B" stroke-width="1.5" stroke-linejoin="round"/>
</svg>
