<svg width="16" height="17" viewBox="0 0 16 17" fill="none" xmlns="http://www.w3.org/2000/svg">
<path fill-rule="evenodd" clip-rule="evenodd" d="M8.6001 0.604444C8.6001 0.270619 8.33147 0 8.0001 0C7.66873 0 7.4001 0.270619 7.4001 0.604444V2.2163C7.4001 2.55012 7.66873 2.82074 8.0001 2.82074C8.33147 2.82074 8.6001 2.55012 8.6001 2.2163V0.604444ZM1.22437 2.59482C0.990054 2.35877 0.610155 2.35877 0.37584 2.59482C0.141526 2.83087 0.141526 3.21358 0.37584 3.44963L1.57584 4.65852C1.81015 4.89457 2.19005 4.89457 2.42437 4.65852C2.65868 4.42247 2.65868 4.03975 2.42437 3.8037L1.22437 2.59482ZM15.6244 3.44963C15.8587 3.21358 15.8587 2.83087 15.6244 2.59482C15.3901 2.35877 15.0102 2.35877 14.7758 2.59482L13.5758 3.8037C13.3415 4.03975 13.3415 4.42247 13.5758 4.65852C13.8102 4.89457 14.1901 4.89457 14.4244 4.65852L15.6244 3.44963ZM15.1018 8.31805C16.2994 9.47302 16.2994 11.4811 15.1018 12.636C13.4507 14.2282 10.8834 16.1185 8 16.1185C5.11664 16.1185 2.54929 14.2282 0.898245 12.636C-0.299415 11.4811 -0.299415 9.47302 0.898244 8.31805C2.54929 6.72587 5.11664 4.83556 8 4.83556C10.8834 4.83556 13.4507 6.72586 15.1018 8.31805ZM10.4 10.477C10.4 11.8123 9.32546 12.8948 7.99998 12.8948C6.67449 12.8948 5.59998 11.8123 5.59998 10.477C5.59998 9.14174 6.67449 8.05926 7.99998 8.05926C9.32546 8.05926 10.4 9.14174 10.4 10.477Z" fill="#A81B1B"/>
</svg>
